
<svg xmlns="http://www.w3.org/2000/svg" width="112.998" height="40.782" viewBox="0 0 112.998 40.782">
  <g id="Group_5869" data-name="Group 5869" transform="translate(-1952.94 -8832.064)">
    <g id="Group_5866" data-name="Group 5866" transform="translate(1953.191 8832.314)">
      <g id="Component_357_40" data-name="Component 357 – 40" transform="translate(0 0)">
        <g id="Group_34" data-name="Group 34" transform="translate(9.84)" style="mix-blend-mode: normal;isolation: isolate">
          <g id="Group_29" data-name="Group 29" transform="translate(6.204 19.705)">
            <path id="Path_253" data-name="Path 253" d="M-4665.515,4732.561l5.87-3.411,6.065,3.5-5.87,3.411Z" transform="translate(4666.07 -4728.594)" fill="#fdefe6" stroke="#000" stroke-linejoin="round" stroke-width="0.5"/>
            <path id="Path_253_-_Outline" data-name="Path 253 - Outline" d="M-4669.09,4719.149a.557.557,0,0,1,.277.074l6.066,3.5a.555.555,0,0,1,.278.48.556.556,0,0,1-.276.48l-5.87,3.412a.556.556,0,0,1-.557,0l-6.066-3.5a.556.556,0,0,1-.277-.48.555.555,0,0,1,.276-.481l5.87-3.411A.55.55,0,0,1-4669.09,4719.149Zm4.958,4.059-4.958-2.862-4.763,2.768,4.957,2.862Z" transform="translate(4675.515 -4719.149)" stroke="#000" stroke-width="0.5"/>
          </g>
          <g id="Group_30" data-name="Group 30" transform="translate(12.25 23.315)">
            <path id="Path_254" data-name="Path 254" d="M-4556.61,4795.635l5.87-3.411-.021,7.106-5.87,3.411Z" transform="translate(4557.186 -4791.668)" fill="#fdefe6" stroke="#000" stroke-linejoin="round" stroke-width="0.5"/>
            <path id="Path_254_-_Outline" data-name="Path 254 - Outline" d="M-4560.185,4782.224a.558.558,0,0,1,.277.074.557.557,0,0,1,.277.483l-.021,7.106a.554.554,0,0,1-.276.478l-5.87,3.412a.557.557,0,0,1-.557,0,.555.555,0,0,1-.277-.482l.02-7.106a.557.557,0,0,1,.276-.479l5.87-3.411A.551.551,0,0,1-4560.185,4782.224Zm-.575,7.341.017-5.82-4.758,2.765-.017,5.82Z" transform="translate(4566.63 -4782.224)" stroke="#000" stroke-width="0.5"/>
          </g>
          <g id="Group_31" data-name="Group 31" transform="translate(0 3.411)">
            <path id="Path_255" data-name="Path 255" d="M-4771.011,4444.6l-.045,16.053,6.066,3.549-.021,7.2-6.066-3.549-6.184-3.572.065-23.3Z" transform="translate(4777.816 -4440.426)" fill="#fdefe6" stroke="#000" stroke-linejoin="round" stroke-width="0.5"/>
            <path id="Path_255_-_Outline" data-name="Path 255 - Outline" d="M-4786.64,4430.981a.538.538,0,0,1,.277.076l6.184,3.616a.563.563,0,0,1,.278.489l-.044,15.719,5.787,3.385a.562.562,0,0,1,.278.489l-.02,7.2a.566.566,0,0,1-.279.486.548.548,0,0,1-.554,0l-6.066-3.547-6.182-3.569a.565.565,0,0,1-.28-.49l.065-23.29a.564.564,0,0,1,.278-.485A.548.548,0,0,1-4786.64,4430.981Zm5.628,4.5-5.076-2.968-.062,21.99,5.9,3.409,5.238,3.063.017-5.9-5.787-3.384a.563.563,0,0,1-.278-.489Z" transform="translate(4787.261 -4430.981)" stroke="#000" stroke-width="0.5"/>
          </g>
          <g id="Group_32" data-name="Group 32" transform="translate(6.204 3.57)">
            <path id="Path_256" data-name="Path 256" d="M-4665.47,4447.26l5.87-3.411-.045,15.841-5.87,3.411Z" transform="translate(4666.07 -4443.294)" fill="#fdefe6" stroke="#000" stroke-linejoin="round" stroke-width="0.5"/>
            <path id="Path_256_-_Outline" data-name="Path 256 - Outline" d="M-4669.045,4433.849a.553.553,0,0,1,.278.075.554.554,0,0,1,.278.482l-.045,15.841a.556.556,0,0,1-.277.479l-5.87,3.411a.556.556,0,0,1-.557,0,.555.555,0,0,1-.277-.482l.045-15.841a.554.554,0,0,1,.276-.479l5.87-3.411A.552.552,0,0,1-4669.045,4433.849Zm-.6,16.076.041-14.555-4.758,2.765-.041,14.554Z" transform="translate(4675.515 -4433.849)" stroke="#000" stroke-width="0.5"/>
          </g>
          <g id="Group_33" data-name="Group 33" transform="translate(0.065)">
            <path id="Path_257" data-name="Path 257" d="M-4776.087,4382.955l5.87-3.411,6.184,3.57-5.869,3.411Z" transform="translate(4776.642 -4378.989)" fill="#fdefe6" stroke="#000" stroke-linejoin="round" stroke-width="0.5"/>
            <path id="Path_257_-_Outline" data-name="Path 257 - Outline" d="M-4779.662,4369.544a.558.558,0,0,1,.277.074l6.184,3.571a.554.554,0,0,1,.278.48.554.554,0,0,1-.276.48l-5.87,3.411a.555.555,0,0,1-.557,0l-6.185-3.57a.554.554,0,0,1-.277-.48.555.555,0,0,1,.276-.481l5.87-3.411A.553.553,0,0,1-4779.662,4369.544Zm5.076,4.127-5.075-2.93-4.763,2.768,5.076,2.931Z" transform="translate(4786.087 -4369.544)" stroke="#000" stroke-width="0.5"/>
          </g>
        </g>
        <g id="Group_40" data-name="Group 40" transform="translate(0 5.33)" style="mix-blend-mode: normal;isolation: isolate">
          <g id="Group_35" data-name="Group 35" transform="translate(6.204 19.705)">
            <path id="Path_258" data-name="Path 258" d="M-4837.515,4828.561l5.87-3.411,6.066,3.5-5.87,3.411Z" transform="translate(4838.07 -4824.594)" fill="#fdefe6" stroke="#000" stroke-linejoin="round" stroke-width="0.5"/>
            <path id="Path_258_-_Outline" data-name="Path 258 - Outline" d="M-4841.09,4815.149a.553.553,0,0,1,.277.075l6.066,3.5a.556.556,0,0,1,.277.48.555.555,0,0,1-.276.48l-5.87,3.412a.556.556,0,0,1-.557,0l-6.065-3.5a.556.556,0,0,1-.278-.48.554.554,0,0,1,.277-.481l5.869-3.411A.554.554,0,0,1-4841.09,4815.149Zm4.958,4.059-4.957-2.862-4.763,2.768,4.958,2.862Z" transform="translate(4847.515 -4815.149)" stroke="#000" stroke-width="0.5"/>
          </g>
          <g id="Group_36" data-name="Group 36" transform="translate(12.25 23.315)">
            <path id="Path_259" data-name="Path 259" d="M-4728.61,4891.635l5.87-3.412-.02,7.106-5.87,3.411Z" transform="translate(4729.186 -4887.668)" fill="#fdefe6" stroke="#000" stroke-linejoin="round" stroke-width="0.5"/>
            <path id="Path_259_-_Outline" data-name="Path 259 - Outline" d="M-4732.186,4878.224a.552.552,0,0,1,.278.075.554.554,0,0,1,.278.482l-.02,7.106a.557.557,0,0,1-.276.479l-5.87,3.411a.555.555,0,0,1-.556,0,.556.556,0,0,1-.278-.483l.021-7.106a.553.553,0,0,1,.276-.479l5.87-3.411A.555.555,0,0,1-4732.186,4878.224Zm-.574,7.341.017-5.82-4.758,2.765-.017,5.819Z" transform="translate(4738.63 -4878.224)" stroke="#000" stroke-width="0.5"/>
          </g>
          <g id="Group_37" data-name="Group 37" transform="translate(0 3.411)">
            <path id="Path_260" data-name="Path 260" d="M-4943.012,4540.6l-.044,16.054,6.065,3.549-.021,7.2-6.065-3.549-6.185-3.573.065-23.3Z" transform="translate(4949.816 -4536.425)" fill="#fdefe6" stroke="#000" stroke-linejoin="round" stroke-width="0.5"/>
            <path id="Path_260_-_Outline" data-name="Path 260 - Outline" d="M-4958.641,4526.981a.555.555,0,0,1,.278.075l6.184,3.617a.563.563,0,0,1,.278.488l-.044,15.72,5.788,3.384a.566.566,0,0,1,.277.489l-.021,7.2a.564.564,0,0,1-.278.486.551.551,0,0,1-.555,0l-6.065-3.547-6.182-3.569a.566.566,0,0,1-.28-.49l.065-23.289a.562.562,0,0,1,.278-.486A.548.548,0,0,1-4958.641,4526.981Zm5.628,4.5-5.076-2.969-.062,21.99,5.9,3.408,5.238,3.063.017-5.9-5.787-3.385a.564.564,0,0,1-.278-.488Z" transform="translate(4959.261 -4526.981)" stroke="#000" stroke-width="0.5"/>
          </g>
          <g id="Group_38" data-name="Group 38" transform="translate(6.204 3.57)">
            <path id="Path_261" data-name="Path 261" d="M-4837.47,4543.26l5.87-3.411-.045,15.84-5.87,3.412Z" transform="translate(4838.07 -4539.294)" fill="#fdefe6" stroke="#000" stroke-linejoin="round" stroke-width="0.5"/>
            <path id="Path_261_-_Outline" data-name="Path 261 - Outline" d="M-4841.045,4529.849a.553.553,0,0,1,.277.075.553.553,0,0,1,.277.482l-.044,15.841a.557.557,0,0,1-.277.479l-5.87,3.411a.553.553,0,0,1-.557,0,.554.554,0,0,1-.278-.482l.045-15.841a.557.557,0,0,1,.276-.479l5.87-3.411A.554.554,0,0,1-4841.045,4529.849Zm-.6,16.076.042-14.554-4.757,2.765-.042,14.554Z" transform="translate(4847.515 -4529.849)" stroke="#000" stroke-width="0.5"/>
          </g>
          <g id="Group_39" data-name="Group 39" transform="translate(0.065 0)">
            <path id="Path_262" data-name="Path 262" d="M-4948.087,4478.955l5.87-3.411,6.185,3.57-5.87,3.411Z" transform="translate(4948.642 -4474.989)" fill="#fdefe6" stroke="#000" stroke-linejoin="round" stroke-width="0.5"/>
            <path id="Path_262_-_Outline" data-name="Path 262 - Outline" d="M-4951.662,4465.544a.557.557,0,0,1,.277.074l6.185,3.57a.558.558,0,0,1,.278.48.557.557,0,0,1-.276.481l-5.87,3.411a.553.553,0,0,1-.556,0l-6.185-3.57a.555.555,0,0,1-.278-.48.556.556,0,0,1,.276-.481l5.87-3.411A.551.551,0,0,1-4951.662,4465.544Zm5.076,4.127-5.075-2.93-4.763,2.768,5.075,2.931Z" transform="translate(4958.087 -4465.544)" stroke="#000" stroke-width="0.5"/>
          </g>
        </g>
        <path id="Path_28405" data-name="Path 28405" d="M10.4-2.68V0H1.56V-14.74H4.58V-2.68ZM11.46-13.3a1.587,1.587,0,0,1,.49-1.18,1.637,1.637,0,0,1,1.19-.48,1.58,1.58,0,0,1,1.16.48,1.6,1.6,0,0,1,.48,1.18,1.614,1.614,0,0,1-.48,1.17,1.564,1.564,0,0,1-1.16.49,1.637,1.637,0,0,1-1.19-.48A1.587,1.587,0,0,1,11.46-13.3Zm3.1,3.34V0H11.7V-9.96Zm11.76,0L22.16,0h-2.8L15.44-9.96h3.08L20.84-3.4l2.54-6.56ZM36.2-4H28.82a1.846,1.846,0,0,0,.79,1.4,2.831,2.831,0,0,0,1.59.44,2.287,2.287,0,0,0,2.24-1.3l2.38.92A4.2,4.2,0,0,1,34.05-.48,5.42,5.42,0,0,1,31.2.26a5.316,5.316,0,0,1-2.03-.38,4.655,4.655,0,0,1-1.6-1.07,4.83,4.83,0,0,1-1.04-1.65,5.908,5.908,0,0,1-.37-2.14,5.989,5.989,0,0,1,.37-2.15A4.918,4.918,0,0,1,27.57-8.8a4.567,4.567,0,0,1,1.61-1.08,5.447,5.447,0,0,1,2.06-.38,5.3,5.3,0,0,1,2.04.38,4.472,4.472,0,0,1,1.57,1.07,4.71,4.71,0,0,1,1,1.67,6.383,6.383,0,0,1,.35,2.16ZM33.3-5.96a2.089,2.089,0,0,0-.64-1.47,2.167,2.167,0,0,0-1.48-.49,2.129,2.129,0,0,0-2.3,1.96ZM46.74-2.68V0H37.9V-14.74h3.02V-2.68ZM47.8-13.3a1.587,1.587,0,0,1,.49-1.18,1.637,1.637,0,0,1,1.19-.48,1.58,1.58,0,0,1,1.16.48,1.6,1.6,0,0,1,.48,1.18,1.614,1.614,0,0,1-.48,1.17,1.564,1.564,0,0,1-1.16.49,1.637,1.637,0,0,1-1.19-.48A1.587,1.587,0,0,1,47.8-13.3Zm3.1,3.34V0H48.04V-9.96ZM62.36-6.14V0H59.52V-5.48a2.054,2.054,0,0,0-.6-1.74,2.012,2.012,0,0,0-1.28-.46,2.574,2.574,0,0,0-1.48.48,1.929,1.929,0,0,0-.66,1.72V0H52.66V-9.96h2.7l.08.9a2.791,2.791,0,0,1,1.17-.88,4.162,4.162,0,0,1,1.65-.32,4.041,4.041,0,0,1,3.05,1.09A4.187,4.187,0,0,1,62.36-6.14ZM64.02,0V-15h2.86v8.68l3.44-3.64h3.56l-4.36,4.6L73.58,0H70.1L67.64-3.38l-.76.82V0Z" transform="translate(38.868 26.735)"/>
      </g>
    </g>
  </g>
</svg>
